v -22.9841 1.93447 -30.4762
v -22.0691 1.94782 -24.4879
v -17.9117 1.86942 -28.5148
v -16.7231 4.22508 -23.4275
v -12.8389 2.44149 -26.9402
v -19.4107 3.10836 -20.727
v -11.6403 6.65328 -22.6361
v -15.3811 6.97297 -18.7584
v -22.0983 1.99163 -18.0265
v -7.80203 3.6756 -25.7737
v -18.002 4.06986 -15.256
v -10.4338 8.78744 -17.4301
v -6.4931 8.02793 -21.6011
v -9.28184 1.67485 -31.0424
v -13.6812 7.55512 -13.4097
v -21.809 2.08947 -11.9157
v -2.5728 4.42827 -24.6526
v -4.13751 1.83247 -29.7012
v -16.9198 4.74003 -9.55487
v -8.36454 9.30635 -12.0129
v -5.26098 10.8021 -16.5446
v -1.09862 8.12989 -20.1779
v -12.3629 8.29944 -7.79055
v -20.5938 2.33761 -6.09233
v 2.75699 5.04533 -23.8514
v 1.13265 2.00881 -28.5424
v -15.1995 4.43736 -4.14123
v -7.21331 10.9415 -6.57775
v -3.46108 13.4761 -11.0411
v 0.262336 10.7921 -15.6817
v 4.3369 8.08561 -19.1718
v -10.6627 8.35068 -2.10551
v -19.2831 2.78897 -0.464848
v 8.02449 4.94314 -22.6482
v 6.47977 2.22836 -27.4519
v -14.4017 5.53689 1.52431
v -24.8419 1.83542 -2.53351
v -5.60414 11.3963 0.132695
v -2.69904 16.4906 -5.55585
v 2.26026 13.7944 -10.7699
v 6.21039 10.3296 -14.2316
v 9.48136 6.31086 -17.501
v -8.90683 7.06167 3.34861
v -23.1383 1.74915 3.15754
v -18.1397 3.05071 5.19975
v 13.4772 3.94743 -21.3031
v 11.8426 2.19201 -26.3939
v -13.3207 5.5356 7.30336
v -3.80724 8.72187 5.51556
v -1.36496 13.7786 -1.8864
v 3.40839 16.6479 -6.12807
v 7.51746 11.0439 -8.38688
v 11.0407 7.14356 -12.0611
v 14.8848 4.48368 -15.9345
v 10.2936 1.9335 -31.8722
v -8.04952 6.6429 9.31263
v -22.1233 1.75687 8.87059
v -17.2744 3.05517 10.8415
v -0.0308741 11.0667 1.78304
v 18.7411 2.27116 -19.8723
v 17.3422 1.99791 -25.2297
v 15.7842 1.93386 -30.7251
v -12.0401 3.9303 12.6457
v -2.44971 6.22411 10.6978
v 1.69321 8.09917 6.86164
v 4.51168 13.6092 -1.5915
v 12.1748 6.49534 -6.30964
v 16.2993 4.48657 -10.4461
v 20.1003 2.22677 -14.4676
v -6.5325 2.94907 13.6423
v -21.4936 2.01787 14.789
v -16.0407 1.93134 16.3405
v 5.91049 10.4257 3.43229
v 9.26174 9.2856 -1.85241
v 24.2932 1.83983 -18.5395
v 22.8788 1.93758 -23.9871
v 21.3416 1.94832 -29.4937
v -10.4535 1.76316 17.6552
v -0.980475 2.33086 14.9124
v 3.04178 4.55345 11.3698
v 7.13518 6.27104 7.61654
v 14.526 6.0819 -0.811508
v 17.7264 3.68166 -5.0435
v 21.5492 1.99568 -9.12423
v -4.86535 1.54414 19.0138
v 11.1184 7.36377 3.64645
v 4.57371 1.92396 16.3073
v 8.53955 3.2439 12.4836
v 12.4637 4.33171 8.57144
v 16.1981 4.69761 4.64612
v 19.4875 2.72944 0.3161
v 23.275 1.82487 -3.79196
v 10.0834 1.86699 17.858
v 13.977 2.10722 13.7733
v 17.7388 2.48444 9.80951
v 21.3874 1.97312 5.62085
v 19.5 1.95218 15.2119
v 23.3312 1.92355 11.0165
vn 0.0145442 0.999884 -0.00445195
vn -0.311135 0.888036 -0.338508
vn 0.0301924 0.904317 -0.425792
vn -0.390544 0.92055 -0.00800967
vn -0.246944 0.726079 -0.641738
vn -0.591769 0.757493 -0.275706
vn -0.390544 0.92055 -0.0080097
vn -0.343256 0.849268 -0.401148
vn -0.0140971 0.716617 -0.697325
vn -0.705521 0.706351 0.0575277
vn -0.425133 0.903784 -0.0493676
vn -0.250402 0.914782 -0.316975
vn -0.0427197 0.698079 -0.714745
vn -0.15743 0.937072 -0.311627
vn -0.655083 0.744785 0.127131
vn -0.456382 0.889753 0.00736045
vn -0.346194 0.93813 0.00791783
vn -0.178985 0.924195 -0.337385
vn 0.0582513 0.681687 -0.729321
vn 0.0683214 0.92616 -0.37089
vn -0.635253 0.771727 0.029866
vn -0.471229 0.881896 -0.0142189
vn -0.320175 0.946831 0.0316014
vn -0.268519 0.870617 -0.412218
vn 0.160251 0.733992 -0.659981
vn -0.0322304 0.8929 -0.449101
vn -0.625399 0.77909 0.0435213
vn -0.500559 0.863053 0.0676794
vn -0.299052 0.952591 -0.0560229
vn -0.370217 0.927456 0.0525718
vn 0.115491 0.858719 -0.499262
vn 0.0069423 0.769383 -0.63875
vn 0.074928 0.877201 -0.47424
vn -0.654142 0.71462 0.247823
vn -0.412942 0.892565 0.181124
vn -0.41504 0.891745 -0.180367
vn -0.618521 0.767066 -0.170418
vn 0.0837599 0.84613 -0.526354
vn 0.111708 0.815658 -0.567647
vn -0.0164058 0.841944 -0.539316
vn -0.689886 0.695728 0.200047
vn -0.366053 0.930534 0.0106242
vn -0.47728 0.868334 0.134909
vn -0.633583 0.767604 -0.0967301
vn 0.0726858 0.88752 -0.454999
vn 0.104952 0.841471 -0.530011
vn 0.146582 0.806162 -0.573251
vn 0.080613 0.823778 -0.561151
vn -0.636534 0.768943 -0.0595946
vn -0.153159 0.987243 -0.04351
vn -0.453998 0.884467 -0.107719
vn -0.537648 0.840091 0.0719858
vn -0.728152 0.638337 -0.249641
vn -0.0233029 0.857189 -0.514474
vn 0.180286 0.868017 -0.462649
vn 0.403471 0.849505 -0.339931
vn 0.135157 0.843359 -0.520075
vn -0.350663 0.879832 0.32083
vn -0.195019 0.978064 0.073203
vn -0.508961 0.858477 0.0630647
vn -0.593046 0.719697 0.361017
vn -0.780409 0.608001 0.145931
vn -0.0261365 0.87761 -0.478662
vn 0.200739 0.797413 -0.569067
vn 0.423309 0.753625 -0.502851
vn 0.244806 0.917619 -0.313122
vn 0.107389 0.850371 -0.515109
vn -0.283377 0.957531 0.0532209
vn -0.254538 0.96704 0.00669366
vn -0.487607 0.868265 0.0914033
vn -0.455024 0.727584 0.513395
vn -0.138135 0.771827 0.620646
vn -0.0698525 0.857444 -0.509815
vn 0.528282 0.820495 -0.218415
vn 0.614152 0.734569 -0.288489
vn 0.362768 0.913064 -0.186319
vn 0.257293 0.885098 -0.387816
vn 0.0170132 0.998506 -0.0519278
vn -0.241768 0.964905 0.102505
vn -0.26949 0.961876 0.0465816
vn -0.482144 0.873023 0.0732669
vn -0.351621 0.928956 0.115772
vn -0.0859656 0.880506 0.466175
vn 0.0340469 0.809615 0.585974
vn -0.138135 0.771827 0.620646
vn 0.569121 0.630192 -0.528165
vn 0.60552 0.762298 -0.228576
vn 0.373391 0.895001 -0.244032
vn 0.342928 0.921569 -0.181966
vn 0.107896 0.928669 -0.35487
vn 0.0103946 0.998692 -0.0500653
vn -0.316173 0.88502 0.341723
vn -0.27404 0.960832 0.0412766
vn -0.266681 0.903533 0.335423
vn -0.0425565 0.895603 0.442814
vn -0.0279033 0.858916 0.511356
vn -0.00402225 0.830382 0.55718
vn -0.00675551 0.80301 0.595927
vn 0.825756 0.540498 0.161211
vn 0.711256 0.700254 -0.0613198
vn 0.477473 0.869921 -0.123517
vn 0.418272 0.903044 -0.0977734
vn 0.333726 0.932993 -0.134728
vn 0.0401278 0.998929 -0.0230206
vn 0.0193933 0.763961 0.644971
vn -0.252614 0.967438 -0.0157868
vn -0.241746 0.938623 0.24606
vn -0.109915 0.736806 0.66711
vn -0.00456298 0.900347 0.435148
vn -0.0512404 0.854598 0.516756
vn -0.0615659 0.83524 0.546429
vn 0.673582 0.738868 0.0190143
vn 0.697132 0.71691 0.00681957
vn 0.447887 0.894004 0.0124475
vn 0.420404 0.900787 -0.108825
vn 0.0803132 0.996697 -0.0120123
vn 0.023691 0.998088 -0.0570918
vn -2.09687e-05 0.999932 -0.0116497
vn 0.0979289 0.924318 0.368845
vn -0.0441144 0.976807 0.209527
vn -0.0702808 0.907227 0.414728
vn -0.078062 0.718601 0.691028
vn 0.172415 0.798649 0.576569
vn 0.149394 0.723166 0.674323
vn 0.657082 0.705933 0.26439
vn 0.536471 0.827187 -0.167214
vn 0.44942 0.893205 0.0143635
vn 0.443966 0.892303 -0.0817867
vn 0.078018 0.996949 -0.0023701
vn 0.0111586 0.999937 -0.00116379
vn -0.0254681 0.965178 0.26035
vn 0.0537914 0.970016 0.237016
vn 0.150131 0.751765 0.642114
vn 0.188972 0.798531 0.571523
vn 0.391869 0.707646 0.587942
vn 0.498428 0.856945 0.131203
vn 0.496058 0.858133 0.132419
vn 0.472443 0.870718 -0.13656
vn 0.423832 0.90545 0.0229466
vn -0.0573175 0.8737 0.483077
vn 0.102198 0.857667 0.503947
vn 0.228192 0.855685 0.464469
vn 0.449341 0.889033 0.087825
vn 0.565577 0.823749 -0.0394894
vn 0.332038 0.940089 -0.0773558
vn 0.123927 0.891274 0.436202
vn 0.227642 0.854962 0.466068
vn 0.356637 0.835911 0.41721
vn 0.552857 0.832232 0.0417027
vn 0.302437 0.950631 0.069518
vn -0.0646504 0.962065 0.265051
vn 0.106932 0.925052 0.364477
vn 0.245666 0.915347 0.319042
vn 0.470734 0.881229 -0.0429543
vn 0.153856 0.966906 0.203524
vn 0.245369 0.915109 0.319951
vn 0.412256 0.875455 0.252236
vn 0.00262012 0.995261 0.0972031
vn 0.105954 0.993947 -0.0290397
vn 0.0844952 0.993935 0.0703806
f 1//1 2//1 3//1 
f 4//2 3//2 2//2 
f 4//3 5//3 3//3 
f 6//4 4//4 2//4 
f 4//5 7//5 5//5 
f 6//6 8//6 4//6 
f 6//7 2//7 9//7 
f 8//8 7//8 4//8 
f 7//9 10//9 5//9 
f 6//10 11//10 8//10 
f 6//11 9//11 11//11 
f 8//12 12//12 7//12 
f 7//13 13//13 10//13 
f 5//14 10//14 14//14 
f 11//15 15//15 8//15 
f 16//16 11//16 9//16 
f 8//17 15//17 12//17 
f 7//18 12//18 13//18 
f 10//19 13//19 17//19 
f 10//20 18//20 14//20 
f 11//21 19//21 15//21 
f 16//22 19//22 11//22 
f 15//23 20//23 12//23 
f 12//24 21//24 13//24 
f 13//25 22//25 17//25 
f 10//26 17//26 18//26 
f 19//27 23//27 15//27 
f 24//28 19//28 16//28 
f 15//29 23//29 20//29 
f 12//30 20//30 21//30 
f 21//31 22//31 13//31 
f 17//32 22//32 25//32 
f 17//33 26//33 18//33 
f 19//34 27//34 23//34 
f 24//35 27//35 19//35 
f 23//36 28//36 20//36 
f 20//37 29//37 21//37 
f 21//38 30//38 22//38 
f 22//39 31//39 25//39 
f 17//40 25//40 26//40 
f 27//41 32//41 23//41 
f 24//42 33//42 27//42 
f 23//43 32//43 28//43 
f 20//44 28//44 29//44 
f 21//45 29//45 30//45 
f 22//46 30//46 31//46 
f 25//47 31//47 34//47 
f 25//48 35//48 26//48 
f 27//49 36//49 32//49 
f 24//50 37//50 33//50 
f 27//51 33//51 36//51 
f 32//52 38//52 28//52 
f 28//53 39//53 29//53 
f 29//54 40//54 30//54 
f 30//55 41//55 31//55 
f 31//56 42//56 34//56 
f 25//57 34//57 35//57 
f 36//58 43//58 32//58 
f 44//59 33//59 37//59 
f 45//60 36//60 33//60 
f 43//61 38//61 32//61 
f 38//62 39//62 28//62 
f 29//63 39//63 40//63 
f 30//64 40//64 41//64 
f 31//65 41//65 42//65 
f 34//66 42//66 46//66 
f 34//67 47//67 35//67 
f 48//68 43//68 36//68 
f 45//69 33//69 44//69 
f 45//70 48//70 36//70 
f 43//71 49//71 38//71 
f 50//72 39//72 38//72 
f 39//73 51//73 40//73 
f 40//74 52//74 41//74 
f 41//75 53//75 42//75 
f 42//76 54//76 46//76 
f 34//77 46//77 47//77 
f 35//78 47//78 55//78 
f 48//79 56//79 43//79 
f 57//80 45//80 44//80 
f 45//81 58//81 48//81 
f 43//82 56//82 49//82 
f 38//83 49//83 59//83 
f 39//84 50//84 51//84 
f 38//85 59//85 50//85 
f 51//86 52//86 40//86 
f 41//87 52//87 53//87 
f 53//88 54//88 42//88 
f 46//89 54//89 60//89 
f 46//90 61//90 47//90 
f 62//91 55//91 47//91 
f 48//92 63//92 56//92 
f 57//93 58//93 45//93 
f 58//94 63//94 48//94 
f 56//95 64//95 49//95 
f 49//96 65//96 59//96 
f 51//97 50//97 66//97 
f 59//98 66//98 50//98 
f 51//99 66//99 52//99 
f 52//100 67//100 53//100 
f 53//101 68//101 54//101 
f 54//102 69//102 60//102 
f 46//103 60//103 61//103 
f 61//104 62//104 47//104 
f 63//105 70//105 56//105 
f 57//106 71//106 58//106 
f 72//107 63//107 58//107 
f 56//108 70//108 64//108 
f 49//109 64//109 65//109 
f 59//110 65//110 73//110 
f 59//111 73//111 66//111 
f 52//112 66//112 74//112 
f 52//113 74//113 67//113 
f 53//114 67//114 68//114 
f 54//115 68//115 69//115 
f 60//116 69//116 75//116 
f 61//117 60//117 76//117 
f 77//118 62//118 61//118 
f 63//119 78//119 70//119 
f 72//120 58//120 71//120 
f 72//121 78//121 63//121 
f 70//122 79//122 64//122 
f 64//123 80//123 65//123 
f 65//124 81//124 73//124 
f 73//125 74//125 66//125 
f 74//126 82//126 67//126 
f 67//127 83//127 68//127 
f 68//128 84//128 69//128 
f 60//129 75//129 76//129 
f 77//130 61//130 76//130 
f 78//131 85//131 70//131 
f 85//132 79//132 70//132 
f 64//133 79//133 80//133 
f 65//134 80//134 81//134 
f 73//135 81//135 86//135 
f 73//136 86//136 74//136 
f 74//137 86//137 82//137 
f 67//138 82//138 83//138 
f 68//139 83//139 84//139 
f 87//140 80//140 79//140 
f 80//141 88//141 81//141 
f 81//142 89//142 86//142 
f 86//143 90//143 82//143 
f 82//144 91//144 83//144 
f 83//145 92//145 84//145 
f 87//146 88//146 80//146 
f 81//147 88//147 89//147 
f 86//148 89//148 90//148 
f 82//149 90//149 91//149 
f 83//150 91//150 92//150 
f 87//151 93//151 88//151 
f 88//152 94//152 89//152 
f 89//153 95//153 90//153 
f 90//154 96//154 91//154 
f 88//155 93//155 94//155 
f 89//156 94//156 95//156 
f 90//157 95//157 96//157 
f 94//158 97//158 95//158 
f 96//159 95//159 98//159 
f 95//160 97//160 98//160 
